<svg width="20" height="20" viewBox="0 0 20 20" fill="none" xmlns="http://www.w3.org/2000/svg">
<path d="M5.4301 1.66699C4.34344 1.77449 3.61177 2.01616 3.0651 2.56366C2.08594 3.54449 2.08594 5.12366 2.08594 8.28283V11.6328C2.08594 14.7912 2.08594 16.3712 3.0651 17.3528C4.04427 18.3345 5.62094 18.3337 8.77344 18.3337H10.4459C13.5984 18.3337 15.1751 18.3337 16.1543 17.3528C17.0434 16.4612 17.1259 15.0887 17.1334 12.4812" stroke="currentColor" stroke-width="1.5" stroke-linecap="round" stroke-linejoin="round"/>
<path d="M8.77371 5.83372L9.60954 8.75038C10.0762 9.67538 10.662 9.91705 12.1179 10.0004C13.2754 9.97205 13.947 9.83538 14.5204 9.33705C14.9112 8.99705 15.0879 8.48455 15.1737 7.97455L15.4604 6.25038M17.5504 4.58372V8.75038M7.16954 4.11122C8.49204 3.01372 9.67037 2.42455 12.1145 1.77622C12.3903 1.70342 12.6804 1.70485 12.9554 1.78038C15.1187 2.37538 16.287 2.90372 17.852 4.07872C17.9187 4.12872 17.9387 4.22205 17.892 4.29122C17.3812 5.04288 16.2404 5.65205 13.442 6.73705C12.8592 6.96132 12.2132 6.95775 11.6329 6.72705C8.65287 5.54371 7.28287 4.91038 7.11621 4.25288C7.11079 4.22664 7.11293 4.1994 7.12237 4.17433C7.13181 4.14925 7.14816 4.12737 7.16954 4.11122Z" stroke="currentColor" stroke-width="1.5" stroke-linecap="round" stroke-linejoin="round"/>
</svg>
