<svg width="20" height="20" viewBox="0 0 20 20" fill="none" xmlns="http://www.w3.org/2000/svg">
<path d="M2.75 15.6253C2.75 14.6306 3.14511 13.6767 3.84841 12.9734C4.55171 12.2701 5.50558 11.875 6.5002 11.875H14.0006C14.9952 11.875 15.9491 12.2701 16.6524 12.9734C17.3557 13.6767 17.7508 14.6306 17.7508 15.6253C17.7508 16.1226 17.5532 16.5995 17.2016 16.9512C16.8499 17.3028 16.373 17.5004 15.8757 17.5004H4.6251C4.12779 17.5004 3.65085 17.3028 3.2992 16.9512C2.94755 16.5995 2.75 16.1226 2.75 15.6253Z" stroke="#0A0A0A" stroke-width="1.5" stroke-linejoin="round"/>
<path d="M10.2541 8.12539C11.8074 8.12539 13.0667 6.86611 13.0667 5.3127C13.0667 3.75929 11.8074 2.5 10.2541 2.5C8.70067 2.5 7.44141 3.75929 7.44141 5.3127C7.44141 6.86611 8.70067 8.12539 10.2541 8.12539Z" stroke="#0A0A0A" stroke-width="1.5"/>
</svg>
